<svg xmlns="http://www.w3.org/2000/svg" width="412" height="72" viewBox="0 0 412 72">
    <g fill="none" fill-rule="evenodd">
        <path fill="#0B0B09" d="M26.578 28.472c7.893 0 13.783 5.981 13.783 13.73 0 7.746-5.846 13.726-13.74 13.726-1.732 0-3.858-.735-4.858-1.662V72h-7.815l-.02-30.473c0-6.75 5.963-13.055 12.65-13.055zm56.697 0c5.037 0 9.503 2.653 11.736 6.657l-6.803 3.952c-.883-1.82-2.752-2.912-5.038-2.912-3.374 0-5.867 2.443-5.867 6.031 0 3.588 2.493 6.032 5.867 6.032 2.286 0 4.208-1.092 5.038-2.912l6.803 3.901c-2.233 4.055-6.647 6.708-11.736 6.708-7.894 0-13.761-5.98-13.761-13.729 0-7.747 5.867-13.728 13.761-13.728zM8.746 29.2v26H.957v-26h7.79zm40.827 0l5.4 16.484 5.4-16.484h8.621l-9.607 26H50.56l-9.607-26h8.621zM26.71 36.17c-3.101 0-5.57 2.013-5.57 6.278 0 3.847 2.58 5.784 5.543 5.784 3.375 0 5.88-2.443 5.88-6.03 0-3.59-2.478-6.033-5.853-6.033zM263.192 41.552c1.033 0 1.883.192 2.55.575.666.384 1.258.858 1.775 1.425v-1.75h3.8v10.376c0 2.382-.567 4.14-1.7 5.274-.634.633-1.429 1.092-2.387 1.375-.959.283-2.088.425-3.388.425-1.1 0-2.15-.12-3.15-.363-1-.242-1.925-.587-2.775-1.037l1.3-2.85c.7.384 1.404.683 2.113.9.708.216 1.512.325 2.412.325 1.3 0 2.262-.308 2.887-.925s.938-1.525.938-2.725v-.649c-.567.683-1.184 1.216-1.85 1.6-.667.383-1.508.574-2.525.574-.784 0-1.534-.137-2.25-.413-.717-.274-1.35-.678-1.9-1.212-.55-.533-.987-1.187-1.312-1.962-.325-.776-.488-1.663-.488-2.663v-.05c0-1 .167-1.887.5-2.662.333-.776.775-1.429 1.325-1.962.55-.534 1.183-.939 1.9-1.213.717-.276 1.458-.413 2.225-.413zm-67.218 0c1.266 0 2.316.2 3.15.6.833.4 1.567.951 2.2 1.65l-2.325 2.5c-.433-.449-.879-.808-1.338-1.074-.458-.267-1.029-.401-1.712-.401-.483 0-.92.096-1.313.287-.39.193-.733.455-1.025.788-.29.333-.516.721-.674 1.162-.159.443-.238.914-.238 1.414v.049c0 .517.08 1 .238 1.451.158.45.387.841.687 1.174.3.333.658.596 1.075.787.416.193.883.289 1.4.289.633 0 1.187-.129 1.662-.388.476-.259.946-.605 1.413-1.038l2.225 2.25c-.65.717-1.392 1.304-2.225 1.763-.833.458-1.917.687-3.25.687-1 0-1.929-.184-2.788-.55-.858-.366-1.595-.862-2.212-1.487-.617-.625-1.1-1.359-1.45-2.2-.35-.842-.525-1.738-.525-2.688v-.05c0-.95.175-1.849.525-2.7.35-.849.833-1.592 1.45-2.224.617-.634 1.354-1.134 2.212-1.5.86-.368 1.805-.551 2.838-.551zm154.956 0c1.115 0 2.082.2 2.9.6.816.4 1.495.938 2.036 1.612.543.675.942 1.451 1.202 2.326.257.875.387 1.787.387 2.737 0 .15-.005.31-.012.475-.01.167-.022.342-.038.525h-9.325c.183.867.562 1.521 1.137 1.963.575.441 1.288.662 2.137.662.634 0 1.2-.108 1.7-.325.5-.216 1.017-.567 1.55-1.05l2.175 1.925c-.633.784-1.4 1.396-2.3 1.838-.9.441-1.958.662-3.174.662-1 0-1.93-.167-2.788-.5-.858-.333-1.6-.808-2.224-1.425-.625-.616-1.113-1.346-1.464-2.187-.35-.842-.524-1.779-.524-2.813v-.05c0-.95.162-1.849.488-2.7.323-.85.777-1.592 1.361-2.225s1.28-1.133 2.087-1.5c.81-.367 1.704-.55 2.689-.55zm-16.582-4.15c.783 0 1.496.054 2.137.163.642.108 1.238.262 1.787.462.55.201 1.067.451 1.55.75.483.3.95.642 1.4 1.025l-2.424 2.926c-.334-.284-.667-.534-1-.75-.334-.217-.68-.401-1.038-.55-.36-.151-.747-.267-1.162-.351-.418-.083-.875-.125-1.375-.125-.701 0-1.355.147-1.963.439-.61.292-1.142.684-1.6 1.177-.46.494-.816 1.07-1.075 1.73-.26.659-.387 1.365-.387 2.117v.05c0 .802.128 1.541.387 2.218.259.675.625 1.265 1.1 1.765.475.502 1.034.89 1.675 1.166.642.276 1.354.413 2.138.413 1.432 0 2.64-.352 3.625-1.057v-2.518h-3.875v-3.325h7.6v7.601c-.901.766-1.972 1.42-3.213 1.962-1.241.541-2.662.812-4.262.812-1.367 0-2.613-.225-3.738-.675-1.125-.45-2.092-1.075-2.9-1.875-.808-.8-1.437-1.75-1.887-2.849-.451-1.101-.675-2.301-.675-3.601v-.05c0-1.25.228-2.421.687-3.513.458-1.09 1.096-2.049 1.912-2.875.817-.825 1.783-1.474 2.9-1.95 1.117-.474 2.34-.712 3.676-.712zm-189.512 4.15c1.117 0 2.083.2 2.9.6.817.4 1.496.938 2.037 1.612.542.675.942 1.451 1.2 2.326.259.875.388 1.787.388 2.737 0 .15-.004.31-.012.475-.01.167-.021.342-.038.525h-9.325c.183.867.563 1.521 1.138 1.963.574.441 1.287.662 2.137.662.633 0 1.2-.108 1.7-.325.5-.216 1.016-.567 1.55-1.05l2.175 1.925c-.633.784-1.4 1.396-2.3 1.838-.9.441-1.96.662-3.175.662-1 0-1.93-.167-2.787-.5-.86-.333-1.6-.808-2.225-1.425-.625-.616-1.113-1.346-1.463-2.187-.35-.842-.525-1.779-.525-2.813v-.05c0-.95.163-1.849.488-2.7.325-.85.778-1.592 1.362-2.225.583-.633 1.279-1.133 2.088-1.5.808-.367 1.703-.55 2.687-.55zm164.362 0c1.117 0 2.083.2 2.9.6.817.4 1.496.938 2.037 1.612.542.675.942 1.451 1.201 2.326.258.875.387 1.787.387 2.737 0 .15-.004.31-.012.475-.009.167-.021.342-.038.525h-9.325c.183.867.563 1.521 1.137 1.963.576.441 1.288.662 2.138.662.633 0 1.2-.108 1.7-.325.5-.216 1.016-.567 1.55-1.05l2.175 1.925c-.633.784-1.4 1.396-2.3 1.838-.9.441-1.958.662-3.175.662-1 0-1.929-.167-2.787-.5-.859-.333-1.6-.808-2.225-1.425-.625-.616-1.113-1.346-1.463-2.187-.35-.842-.525-1.779-.525-2.813v-.05c0-.95.163-1.849.488-2.7.325-.85.778-1.592 1.362-2.225.583-.633 1.279-1.133 2.087-1.5.809-.367 1.704-.55 2.688-.55zm-128.506 0c1.117 0 2.083.2 2.9.6.817.4 1.496.938 2.038 1.612.541.675.941 1.451 1.2 2.326.258.875.387 1.787.387 2.737 0 .15-.004.31-.012.475-.009.167-.02.342-.038.525h-9.325c.183.867.563 1.521 1.138 1.963.575.441 1.287.662 2.137.662.633 0 1.2-.108 1.7-.325.5-.216 1.016-.567 1.55-1.05l2.175 1.925c-.633.784-1.4 1.396-2.3 1.838-.9.441-1.958.662-3.175.662-1 0-1.929-.167-2.787-.5-.859-.333-1.6-.808-2.225-1.425-.625-.616-1.113-1.346-1.463-2.187-.35-.842-.525-1.779-.525-2.813v-.05c0-.95.163-1.849.488-2.7.325-.85.778-1.592 1.362-2.225.583-.633 1.28-1.133 2.088-1.5s1.703-.55 2.687-.55zm67.658 0c1.033 0 1.991.18 2.875.538.883.358 1.646.85 2.288 1.474.641.626 1.145 1.358 1.512 2.2.366.842.55 1.746.55 2.713v.05c0 .968-.184 1.871-.55 2.712-.367.843-.875 1.58-1.525 2.214-.65.633-1.417 1.133-2.3 1.5-.884.365-1.85.548-2.9.548-1.033 0-1.992-.177-2.875-.536-.884-.359-1.646-.85-2.287-1.476-.642-.624-1.146-1.357-1.513-2.198-.367-.842-.55-1.747-.55-2.713v-.05c0-.968.183-1.871.55-2.713.367-.841.875-1.58 1.525-2.212.65-.635 1.417-1.135 2.3-1.5.883-.367 1.85-.552 2.9-.552zm-23.229 0c1.033 0 1.992.18 2.875.538.883.358 1.646.85 2.288 1.474.641.626 1.145 1.358 1.512 2.2.367.842.55 1.746.55 2.713v.05c0 .968-.183 1.871-.55 2.712-.367.843-.875 1.58-1.525 2.214-.65.633-1.417 1.133-2.3 1.5-.884.365-1.85.548-2.9.548-1.033 0-1.992-.177-2.875-.536-.884-.359-1.646-.85-2.287-1.476-.642-.624-1.147-1.357-1.513-2.198-.367-.842-.55-1.747-.55-2.713v-.05c0-.968.183-1.871.55-2.713.366-.841.875-1.58 1.525-2.212.65-.635 1.416-1.135 2.3-1.5.883-.367 1.85-.552 2.9-.552zm177.787 0c1.033 0 1.991.18 2.875.538.884.358 1.646.85 2.288 1.474.641.626 1.145 1.358 1.512 2.2.367.842.55 1.746.55 2.713v.05c0 .968-.183 1.871-.55 2.712-.367.843-.875 1.58-1.525 2.214-.65.633-1.417 1.133-2.3 1.5-.883.365-1.85.548-2.9.548-1.033 0-1.992-.177-2.875-.536-.883-.359-1.646-.85-2.287-1.476-.642-.624-1.146-1.357-1.513-2.198-.367-.842-.55-1.747-.55-2.713v-.05c0-.968.183-1.871.55-2.713.367-.841.875-1.58 1.526-2.212.65-.635 1.416-1.135 2.3-1.5.882-.367 1.85-.552 2.9-.552zm-115.934.1c1.05 0 1.946.13 2.688.388.74.258 1.354.63 1.837 1.112.5.5.866 1.112 1.1 1.837.233.726.35 1.538.35 2.44v7.773h-3.675v-1.45c-.466.516-1.025.93-1.675 1.237-.65.31-1.442.463-2.375.463-.633 0-1.23-.088-1.788-.263-.558-.174-1.045-.437-1.462-.787-.416-.35-.746-.779-.987-1.288-.242-.508-.363-1.096-.363-1.762v-.05c0-.733.133-1.367.4-1.9.267-.533.638-.974 1.112-1.325.476-.35 1.042-.612 1.7-.787.659-.176 1.388-.263 2.188-.263.683 0 1.279.05 1.787.151.509.1 1.004.233 1.488.4v-.226c0-.8-.241-1.408-.725-1.825-.483-.416-1.2-.625-2.15-.625-.734 0-1.38.063-1.937.188-.56.125-1.146.304-1.763.537l-.95-2.9c.733-.316 1.5-.575 2.3-.775.8-.2 1.767-.3 2.9-.3zm-151.163-4.7v18.25h-3.8v-1.924c-.467.633-1.029 1.154-1.687 1.562-.659.408-1.488.612-2.488.612-.783 0-1.542-.15-2.275-.45-.733-.3-1.383-.745-1.95-1.338-.567-.59-1.02-1.316-1.362-2.175-.342-.857-.513-1.844-.513-2.961v-.05c0-1.117.171-2.105.513-2.964.341-.858.791-1.583 1.35-2.175.558-.59 1.204-1.038 1.938-1.337.732-.3 1.5-.45 2.3-.45 1.016 0 1.853.2 2.512.6.658.4 1.212.867 1.662 1.4v-6.6h3.8zm228.483 4.65c.85 0 1.712.137 2.587.412.875.276 1.68.655 2.413 1.138l-1.45 2.625c-.667-.383-1.317-.687-1.95-.913-.634-.225-1.192-.337-1.675-.337-.467 0-.817.087-1.05.263-.233.175-.35.395-.35.662v.05c0 .183.075.346.225.487.15.143.35.275.6.4s.538.247.862.363c.326.117.671.233 1.038.35.466.15.941.33 1.425.538.483.208.916.462 1.3.762.383.3.7.667.95 1.1.25.433.375.96.375 1.575v.05c0 .75-.129 1.396-.387 1.937-.259.542-.622.988-1.088 1.338-.467.35-1.013.613-1.638.787-.625.175-1.295.263-2.012.263-.95 0-1.92-.162-2.912-.487-.992-.325-1.938-.838-2.838-1.537l1.625-2.5c.733.533 1.463.933 2.188 1.2.724.266 1.404.4 2.037.4.55 0 .954-.093 1.213-.276.258-.183.387-.425.387-.725v-.05c0-.2-.075-.375-.225-.525-.15-.15-.355-.279-.612-.388-.259-.108-.555-.212-.888-.312-.334-.1-.684-.208-1.05-.324-.467-.134-.937-.296-1.413-.489-.475-.19-.904-.44-1.287-.75-.383-.307-.696-.687-.938-1.137-.24-.45-.362-1-.362-1.65v-.05c0-.683.13-1.288.388-1.812.258-.526.608-.97 1.05-1.338.441-.366.958-.642 1.55-.825.591-.183 1.228-.275 1.912-.275zm23.122.05c1.05 0 1.946.13 2.688.388.741.258 1.354.63 1.837 1.112.5.5.867 1.112 1.1 1.837.233.726.35 1.538.35 2.44v7.773h-3.675v-1.45c-.467.516-1.025.93-1.675 1.237-.65.31-1.442.463-2.375.463-.633 0-1.229-.088-1.788-.263-.558-.174-1.045-.437-1.462-.787-.416-.35-.746-.779-.987-1.288-.242-.508-.363-1.096-.363-1.762v-.05c0-.733.133-1.367.4-1.9.267-.533.638-.974 1.113-1.325.475-.35 1.041-.612 1.7-.787.658-.176 1.387-.263 2.187-.263.683 0 1.279.05 1.787.151.509.1 1.004.233 1.488.4v-.226c0-.8-.242-1.408-.725-1.825-.483-.416-1.2-.625-2.15-.625-.734 0-1.379.063-1.937.188-.559.125-1.146.304-1.763.537l-.95-2.9c.733-.316 1.5-.575 2.3-.775.8-.2 1.767-.3 2.9-.3zm-11.1-3.275v3.425h3.15v3.25h-3.15v5.746c0 .87.409 1.305 1.226 1.305.666 0 1.29-.167 1.875-.5v3.05c-.4.233-.842.42-1.325.562-.484.142-1.042.213-1.675.213-.584 0-1.113-.063-1.588-.188-.475-.125-.883-.345-1.225-.663-.341-.316-.608-.728-.8-1.237-.192-.51-.287-1.154-.287-1.937v-6.351h-1.6v-3.25h1.6v-3.425h3.8zm-137.705-1.425v18.25h-3.8v-18.25h3.8zm-63.776.75v3.55h-5.325v13.95h-3.85v-13.95h-5.325v-3.55h14.5zm36.222 3.85c1.45 0 2.57.442 3.363 1.325.79.884 1.187 2.1 1.187 3.65v8.675h-3.8v-7.457c0-.897-.2-1.575-.6-2.032-.4-.457-.967-.685-1.7-.685-.734 0-1.313.228-1.738.685-.425.457-.637 1.135-.637 2.032v7.457h-3.8v-13.4h3.8v1.916c.217-.285.454-.56.712-.818.259-.26.547-.491.863-.693.316-.201.667-.36 1.05-.478.384-.117.816-.177 1.3-.177zm67.214.25v13.4h-3.8v-13.4h3.8zm109.095 7.5c-.817 0-1.458.16-1.925.475-.467.317-.7.775-.7 1.375v.05c0 .517.192.917.575 1.2.383.283.883.425 1.5.425.9 0 1.621-.216 2.163-.649.541-.434.812-1 .812-1.7v-.676c-.333-.15-.704-.27-1.113-.363-.408-.09-.845-.137-1.312-.137zm-100.442 0c-.817 0-1.46.16-1.925.475-.467.317-.7.775-.7 1.375v.05c0 .517.19.917.575 1.2.383.283.883.425 1.5.425.9 0 1.62-.216 2.163-.649.54-.434.812-1 .812-1.7v-.676c-.333-.15-.704-.27-1.112-.363-.41-.09-.846-.137-1.313-.137zm115.934-4.474c-.55 0-1.037.094-1.462.286-.425.193-.788.456-1.088.789-.3.333-.529.72-.687 1.162-.159.442-.238.913-.238 1.413v.05c0 .5.083.97.25 1.412.166.442.41.834.725 1.175.316.341.687.612 1.113.813.425.199.904.3 1.437.3.55 0 1.038-.096 1.463-.288.424-.191.787-.454 1.087-.787.3-.334.53-.721.688-1.163.158-.443.237-.913.237-1.413v-.05c0-.5-.084-.97-.25-1.413-.167-.441-.408-.832-.725-1.174-.317-.341-.692-.612-1.125-.813-.433-.2-.908-.3-1.425-.3zm-274.047-.05c-.45 0-.87.087-1.262.263-.392.174-.738.424-1.038.75-.3.324-.537.71-.712 1.162-.176.45-.262.958-.262 1.524v.05c0 .55.086 1.054.262 1.512.175.46.412.85.712 1.175.3.327.646.577 1.038.75.391.175.812.264 1.262.264.45 0 .871-.089 1.263-.264.391-.173.733-.423 1.025-.75.291-.325.525-.715.7-1.175.175-.458.262-.962.262-1.511v-.05c0-.55-.087-1.056-.262-1.514-.175-.457-.409-.85-.7-1.173-.292-.326-.634-.576-1.025-.75-.392-.176-.813-.263-1.263-.263zm96.26.05c-.55 0-1.037.094-1.463.286-.424.193-.787.456-1.087.789-.3.333-.529.72-.688 1.162-.158.442-.237.913-.237 1.413v.05c0 .5.083.97.25 1.412.166.442.408.834.725 1.175.316.341.687.612 1.113.813.424.199.903.3 1.437.3.55 0 1.038-.096 1.462-.288.425-.191.788-.454 1.088-.787.3-.334.53-.721.687-1.163.16-.443.238-.913.238-1.413v-.05c0-.5-.084-.97-.25-1.413-.167-.441-.409-.832-.725-1.174-.317-.341-.692-.612-1.125-.813-.434-.2-.909-.3-1.425-.3zm23.23 0c-.55 0-1.038.094-1.464.286-.424.193-.787.456-1.087.789-.3.333-.529.72-.687 1.162-.159.442-.238.913-.238 1.413v.05c0 .5.084.97.25 1.412.167.442.408.834.725 1.175.317.341.688.612 1.113.813.424.199.903.3 1.437.3.55 0 1.038-.096 1.462-.288.426-.191.788-.454 1.088-.787.3-.334.53-.721.687-1.163.16-.443.238-.913.238-1.413v-.05c0-.5-.083-.97-.25-1.413-.167-.441-.409-.832-.725-1.174-.317-.341-.692-.612-1.125-.813-.434-.2-.909-.3-1.425-.3zm15.991-.126c-.467 0-.896.075-1.288.226-.39.15-.733.362-1.025.636-.29.276-.52.605-.687.988-.167.383-.25.8-.25 1.25v.05c0 .934.308 1.684.925 2.25.617.567 1.391.85 2.325.85.466 0 .9-.075 1.3-.225.4-.15.746-.363 1.037-.637.292-.276.521-.605.688-.988.166-.383.25-.8.25-1.25v-.05c0-.45-.084-.867-.25-1.25-.167-.383-.396-.712-.688-.988-.29-.274-.637-.487-1.037-.636-.4-.15-.834-.226-1.3-.226zm-119.456-.1c-.8 0-1.446.26-1.937.775-.492.517-.813 1.21-.963 2.075h5.725c-.117-.85-.417-1.537-.9-2.063-.484-.525-1.125-.787-1.925-.787zm35.856 0c-.8 0-1.446.26-1.937.775-.492.517-.813 1.21-.963 2.075h5.725c-.117-.85-.417-1.537-.9-2.063-.483-.525-1.125-.787-1.925-.787zm128.506 0c-.8 0-1.446.26-1.938.775-.491.517-.812 1.21-.962 2.075h5.725c-.117-.85-.417-1.537-.9-2.063-.484-.525-1.125-.787-1.925-.787zm41.732 0c-.8 0-1.447.26-1.939.775-.49.517-.811 1.21-.962 2.075h5.726c-.118-.85-.418-1.537-.9-2.063-.485-.525-1.126-.787-1.925-.787zm39.761-8.35l2.025.625c-.283 1.051-.654 1.887-1.112 2.512-.459.625-1.121.938-1.988.938-.383 0-.754-.05-1.113-.149-.358-.1-.695-.213-1.012-.338-.317-.125-.613-.238-.887-.338-.275-.1-.521-.15-.738-.15-.383 0-.671.104-.862.313-.192.208-.379.513-.563.912l-2.025-.625c.15-.517.313-.987.488-1.412.175-.426.383-.788.625-1.088.241-.3.525-.533.849-.7.326-.166.705-.25 1.138-.25.383 0 .754.05 1.113.15.358.1.695.212 1.012.337.317.125.608.238.875.338.267.101.517.15.75.15.383 0 .671-.104.863-.312.191-.209.378-.513.562-.913zm-114.32-.15c1.187 0 2.179.994 2.179 2.182s-.992 2.18-2.178 2.18c-1.187 0-2.178-.992-2.178-2.18 0-1.188.992-2.181 2.178-2.181zm-29.213-20.55c.783 0 1.542.15 2.275.45.733.3 1.383.747 1.95 1.338.567.591 1.021 1.317 1.362 2.175.342.858.513 1.846.513 2.962v.05c0 1.117-.17 2.104-.513 2.962-.34.86-.79 1.584-1.349 2.175-.559.592-1.205 1.038-1.938 1.337-.733.3-1.5.451-2.3.451-1.017 0-1.854-.2-2.512-.6-.659-.4-1.213-.867-1.663-1.4v5.75h-3.8v-17.4h3.8v1.925c.467-.634 1.03-1.154 1.688-1.563.658-.408 1.487-.613 2.487-.613zm14.46 0c1.116 0 2.083.2 2.9.6.816.4 1.495.938 2.037 1.612.542.675.942 1.451 1.201 2.326.257.875.387 1.787.387 2.737 0 .15-.005.31-.012.475-.009.167-.022.342-.038.525h-9.325c.183.867.562 1.521 1.137 1.963.575.441 1.288.662 2.138.662.633 0 1.2-.108 1.7-.325.5-.216 1.016-.567 1.55-1.05l2.175 1.925c-.634.784-1.4 1.396-2.3 1.838-.9.441-1.959.662-3.175.662-1 0-1.929-.166-2.788-.5-.858-.333-1.6-.808-2.225-1.425-.625-.616-1.112-1.346-1.462-2.187-.35-.842-.525-1.779-.525-2.813v-.05c0-.95.162-1.849.487-2.7.325-.85.779-1.592 1.363-2.225.583-.633 1.279-1.133 2.087-1.5.808-.367 1.704-.55 2.688-.55zm-105.395 0c1.266 0 2.316.2 3.15.6.833.4 1.567.951 2.2 1.65l-2.325 2.5c-.433-.449-.879-.808-1.338-1.074-.458-.267-1.029-.401-1.712-.401-.483 0-.92.096-1.313.287-.39.193-.733.455-1.025.788-.29.333-.516.721-.674 1.162-.159.443-.238.914-.238 1.414v.049c0 .517.08 1 .238 1.451.158.45.387.841.687 1.174.3.333.658.596 1.075.787.416.193.883.289 1.4.289.633 0 1.187-.129 1.662-.388.476-.259.946-.605 1.413-1.038l2.225 2.25c-.65.717-1.392 1.304-2.225 1.763-.833.458-1.917.687-3.25.687-1 0-1.929-.184-2.788-.55-.858-.366-1.596-.862-2.212-1.487-.617-.625-1.1-1.359-1.45-2.2-.35-.842-.525-1.738-.525-2.688v-.05c0-.95.175-1.849.525-2.7.35-.849.833-1.592 1.45-2.224.616-.634 1.354-1.134 2.212-1.5.86-.368 1.805-.551 2.838-.551zm13.568 0c1.033 0 1.99.18 2.875.538.883.358 1.646.85 2.288 1.474.64.625 1.145 1.358 1.512 2.2.367.843.55 1.747.55 2.713v.05c0 .967-.183 1.871-.55 2.712-.367.842-.875 1.58-1.525 2.213-.65.633-1.417 1.133-2.3 1.5-.883.366-1.85.55-2.9.55-1.033 0-1.992-.178-2.875-.537-.884-.358-1.646-.85-2.287-1.476-.642-.625-1.146-1.358-1.513-2.198-.367-.843-.55-1.747-.55-2.713v-.05c0-.967.183-1.871.55-2.713.367-.841.875-1.58 1.525-2.213.65-.634 1.417-1.134 2.3-1.5.883-.367 1.85-.55 2.9-.55zm124.189 0c1.033 0 1.99.18 2.875.538.883.358 1.646.85 2.288 1.474.64.625 1.145 1.358 1.512 2.2.366.843.55 1.747.55 2.713v.05c0 .967-.184 1.871-.55 2.712-.367.842-.875 1.58-1.525 2.213-.65.633-1.417 1.133-2.3 1.5-.884.366-1.85.55-2.901.55-1.032 0-1.991-.178-2.875-.537-.883-.358-1.646-.85-2.286-1.476-.642-.625-1.147-1.358-1.513-2.198-.367-.843-.55-1.747-.55-2.713v-.05c0-.967.183-1.871.55-2.713.366-.841.875-1.58 1.525-2.213.649-.634 1.416-1.134 2.3-1.5.883-.367 1.849-.55 2.9-.55zm-151.641.05c.85 0 1.713.137 2.588.412.875.276 1.678.655 2.412 1.138l-1.45 2.625c-.667-.383-1.317-.687-1.95-.913-.634-.225-1.192-.337-1.675-.337-.467 0-.817.087-1.05.263-.234.175-.35.395-.35.662v.05c0 .183.075.346.225.487.15.143.35.275.6.4s.537.247.863.363c.324.117.67.233 1.037.35.466.15.94.33 1.425.538.483.208.916.462 1.3.762.383.3.699.667.949 1.1.25.433.375.96.375 1.575v.05c0 .75-.128 1.396-.387 1.937-.258.542-.621.988-1.087 1.338-.467.35-1.013.613-1.638.787-.625.175-1.296.263-2.012.263-.95 0-1.921-.162-2.913-.487-.991-.325-1.937-.838-2.837-1.537l1.625-2.5c.733.533 1.462.933 2.187 1.2.726.266 1.404.4 2.038.4.55 0 .954-.093 1.212-.276.259-.183.388-.425.388-.725v-.05c0-.2-.075-.375-.225-.525-.15-.15-.354-.279-.613-.388-.258-.108-.554-.212-.887-.312-.334-.1-.684-.208-1.05-.324-.467-.134-.937-.296-1.413-.489-.474-.19-.904-.44-1.287-.75-.384-.307-.696-.687-.937-1.137-.243-.45-.363-1-.363-1.65v-.05c0-.683.129-1.288.387-1.812.259-.526.608-.97 1.05-1.338.442-.366.959-.642 1.55-.825.592-.183 1.229-.275 1.913-.275zm71.938-4.15c1.283 0 2.461.192 3.537.575 1.075.384 2.062.934 2.963 1.651l-2 2.9c-.785-.534-1.55-.955-2.3-1.264-.75-.307-1.5-.462-2.25-.462s-1.313.146-1.688.438c-.375.291-.563.654-.563 1.087v.051c0 .283.054.528.163.737.11.208.305.395.59.562.283.167.672.325 1.165.475.493.15 1.115.325 1.867.525.886.234 1.676.496 2.37.787.692.292 1.277.642 1.754 1.05.476.41.835.888 1.078 1.438.241.55.363 1.21.363 1.975v.05c0 .867-.157 1.638-.47 2.313-.317.674-.755 1.241-1.318 1.7-.563.458-1.235.808-2.015 1.05-.782.241-1.647.362-2.597.362-1.333 0-2.642-.229-3.925-.687-1.283-.459-2.45-1.163-3.5-2.113l2.276-2.724c.8.65 1.62 1.166 2.461 1.55.842.383 1.763.574 2.763.574.8 0 1.421-.146 1.862-.438.442-.29.664-.695.664-1.212v-.05c0-.25-.047-.47-.139-.663-.092-.19-.267-.37-.526-.537-.259-.167-.619-.333-1.078-.5-.46-.167-1.057-.342-1.793-.525-.885-.216-1.687-.458-2.406-.725-.719-.266-1.328-.596-1.829-.987-.502-.392-.89-.879-1.166-1.463-.276-.583-.414-1.308-.414-2.175v-.05c0-.799.15-1.52.447-2.163.298-.64.716-1.195 1.254-1.662.54-.467 1.181-.825 1.93-1.075.745-.25 1.57-.375 2.47-.375zm-22.25 4.2c1.05 0 1.946.13 2.688.388.741.258 1.354.63 1.837 1.112.5.5.866 1.112 1.1 1.837.233.726.35 1.538.35 2.44v7.773h-3.675v-1.45c-.467.516-1.025.93-1.675 1.237-.65.31-1.442.463-2.375.463-.633 0-1.229-.088-1.787-.263-.559-.174-1.046-.437-1.463-.787-.416-.35-.746-.779-.987-1.288-.242-.508-.363-1.096-.363-1.762v-.05c0-.733.134-1.367.401-1.9.266-.533.637-.974 1.112-1.325.475-.35 1.041-.612 1.7-.787.658-.176 1.387-.263 2.187-.263.683 0 1.28.05 1.788.151.508.1 1.004.233 1.487.4v-.226c0-.8-.242-1.408-.725-1.825-.483-.416-1.2-.625-2.15-.625-.733 0-1.379.063-1.937.188-.559.125-1.146.304-1.763.537l-.949-2.9c.733-.316 1.5-.575 2.3-.775.8-.2 1.766-.3 2.9-.3zm35.607.15v7.457c0 .898.2 1.576.6 2.033.4.457.966.685 1.7.685.733 0 1.313-.228 1.738-.685.424-.457.637-1.135.637-2.033v-7.457h3.8v13.4h-3.8v-1.916c-.217.286-.454.56-.713.818-.258.261-.545.492-.862.694-.317.201-.667.36-1.05.478-.383.117-.817.176-1.3.176-1.45 0-2.571-.44-3.362-1.325-.792-.883-1.188-2.1-1.188-3.65v-8.675h3.8zm-92.723-4.1v3.425h-9.375v3.551h8.25v3.424h-8.25v3.675h9.5v3.425h-13.3v-17.5h13.175zm48.37-.75v18.25h-3.8v-18.25h3.8zm101.004 4.85v13.4h-3.8v-13.4h3.8zm-5.648-.25v3.976h-.2c-1.266 0-2.262.383-2.987 1.15-.724.767-1.087 1.958-1.087 3.574v4.95h-3.8v-13.4h3.8v2.7c.383-.916.908-1.65 1.575-2.2.666-.55 1.566-.8 2.699-.75zm32.995 0v3.976h-.2c-1.267 0-2.263.383-2.988 1.15-.725.767-1.087 1.958-1.087 3.574v4.95h-3.8v-13.4h3.8v2.7c.383-.916.908-1.65 1.575-2.2.666-.55 1.566-.8 2.7-.75zm-119.655 7.75c-.816 0-1.458.16-1.925.475-.467.317-.699.775-.699 1.375v.05c0 .517.191.917.574 1.2.384.283.884.425 1.5.425.9 0 1.621-.216 2.163-.649.541-.434.812-1 .812-1.7v-.676c-.333-.15-.704-.27-1.112-.363-.409-.09-.846-.137-1.313-.137zm101.952-4.474c-.55 0-1.036.095-1.462.287-.424.192-.788.455-1.087.788-.3.332-.53.72-.688 1.162-.16.441-.237.912-.237 1.412v.05c0 .5.083.971.25 1.412.166.442.408.834.724 1.175.317.342.688.613 1.114.813.424.2.903.3 1.437.3.55 0 1.037-.096 1.462-.288.425-.19.788-.454 1.088-.787.3-.332.529-.72.687-1.163.159-.442.238-.912.238-1.412v-.05c0-.5-.084-.97-.25-1.413-.167-.442-.41-.832-.725-1.175-.317-.34-.692-.611-1.125-.813-.434-.199-.91-.299-1.426-.299zm-47.746-.05c-.45 0-.87.087-1.262.263-.392.174-.734.424-1.025.75-.292.323-.526.715-.7 1.174-.175.457-.263.962-.263 1.512v.05c0 .55.088 1.054.263 1.512.174.46.408.85.7 1.175.291.327.633.577 1.025.75.391.176.812.264 1.262.264.45 0 .871-.088 1.263-.264.391-.173.737-.423 1.037-.75.3-.324.538-.712.713-1.162.175-.45.262-.959.262-1.524v-.05c0-.55-.087-1.056-.262-1.514-.175-.457-.413-.85-.713-1.173-.3-.326-.646-.576-1.037-.75-.392-.177-.813-.264-1.263-.264zm-76.442.05c-.55 0-1.037.095-1.462.287-.425.192-.788.455-1.088.788-.3.332-.53.72-.687 1.162-.16.441-.238.912-.238 1.412v.05c0 .5.084.971.25 1.412.167.442.408.834.725 1.175.317.342.687.613 1.113.813.425.2.904.3 1.437.3.55 0 1.038-.096 1.463-.288.424-.19.787-.454 1.087-.787.3-.332.529-.72.688-1.163.158-.442.237-.912.237-1.412v-.05c0-.5-.083-.97-.25-1.413-.166-.442-.41-.832-.725-1.175-.316-.34-.691-.611-1.125-.813-.434-.199-.908-.299-1.425-.299zm91.877-.226c-.8 0-1.446.26-1.938.775-.491.517-.812 1.21-.962 2.075h5.725c-.117-.85-.417-1.537-.9-2.063-.484-.525-1.125-.787-1.925-.787zm20.767-8.5c1.186 0 2.178.994 2.178 2.182s-.992 2.18-2.178 2.18-2.178-.992-2.178-2.18c0-1.188.992-2.181 2.178-2.181z" transform="translate(.238)"/>
        <path fill="#E9A62D" d="M64.762 0v13h12V0h20v7h-13v13h-27V7h-12v13h-27V7h8v6h12V0h27zM5.024 4.693c2.735 0 5.024 2.292 5.024 5.031 0 2.74-2.289 5.032-5.024 5.032C2.288 14.756 0 12.464 0 9.724c0-2.739 2.288-5.03 5.024-5.03z" transform="translate(.238)"/>
    </g>
</svg>
